Coordinates
version=1
nRows=17
nColumns=36
inDegrees=yes

Units are S.I. units (second, meters, Newtons, ...)
If the header above contains a line with 'inDegrees', this indicates whether rotational values are in degrees (yes) or radians (no).

endheader
time	pelvis_tilt	pelvis_list	pelvis_rotation	pelvis_tx	pelvis_ty	pelvis_tz	hip_flexion_r	hip_adduction_r	hip_rotation_r	knee_angle_r	knee_angle_r_beta	ankle_angle_r	subtalar_angle_r	mtp_angle_r	hip_flexion_l	hip_adduction_l	hip_rotation_l	knee_angle_l	knee_angle_l_beta	ankle_angle_l	subtalar_angle_l	mtp_angle_l	lumbar_extension	lumbar_bending	lumbar_rotation	arm_flex_r	arm_add_r	arm_rot_r	elbow_flex_r	pro_sup_r	arm_flex_l	arm_add_l	arm_rot_l	elbow_flex_l	pro_sup_l
      0.00000000	     17.79931441	     -2.86281882	     -1.35853522	     -0.53948084	      0.58436813	     -0.62965654	     66.84282635	     -3.76267509	      2.30410418	     93.79806894	      1.63708514	     10.34772922	    -10.86463578	     -6.20171425	     68.54757680	     -6.89674275	      6.05258168	     96.38828213	      1.68229288	     12.62585607	     -2.78396511	     -6.20171425	    -34.94311163	      1.77567909	     -1.76650620	      3.84774474	    -12.32000436	     21.82998970	    126.14303934	    104.64976426	      2.65898982	     -9.71007059	     19.17391750	    126.16874577	     89.58856172
      0.01000000	     17.76965171	     -2.83265257	     -1.36309605	     -0.53948360	      0.58431449	     -0.62968054	     66.89072266	     -3.78306467	      2.34690150	     93.81791576	      1.63743153	     10.41225443	    -10.66833909	     -6.28051141	     68.57684103	     -6.87742375	      6.02699920	     96.38126528	      1.68217042	     12.51469092	     -2.84991924	     -6.28051141	    -34.91781362	      1.76543355	     -1.77556526	      3.80951516	    -12.30067906	     21.75954142	    126.27453984	    103.45926962	      2.62549436	     -9.70674293	     19.13247738	    126.25306908	     88.90524074
      0.02000000	     17.81544011	     -2.88336567	     -1.38967914	     -0.53958691	      0.58443769	     -0.62962937	     66.81262955	     -3.71015837	      2.31056600	     93.75428152	      1.63632090	     10.19376974	    -11.03497635	     -6.54841783	     68.52692865	     -6.93486973	      6.06239429	     96.38088609	      1.68216380	     12.71063680	     -2.70786281	     -6.54841783	    -34.97186269	      1.79515361	     -1.70048713	      3.85765819	    -12.33031643	     21.68247428	    126.22745575	    103.61837870	      2.69912899	     -9.74254604	     19.20399533	    126.18403878	     88.95207477
      0.03000000	     17.83455710	     -2.89560370	     -1.37465995	     -0.53963363	      0.58451565	     -0.62965626	     66.78639247	     -3.71891411	      2.26295812	     93.73802142	      1.63603711	     10.00009310	    -11.24473402	     -6.58522433	     68.49680618	     -6.91977976	      6.07991269	     96.35703652	      1.68174754	     12.53693765	     -2.96036124	     -6.58522433	    -35.02413205	      1.82210173	     -1.68326849	      3.82104528	    -12.32653714	     21.58912577	    126.30922955	    102.94155500	      2.71595237	     -9.73702428	     19.25546755	    126.37133851	     87.33181351
      0.04000000	     17.80760257	     -2.87553062	     -1.37408039	     -0.53966371	      0.58450987	     -0.62965906	     66.81817799	     -3.73157633	      2.29063674	     93.74026075	      1.63607619	     10.13442710	    -11.06148000	     -6.63801571	     68.51799054	     -6.90304599	      6.05802611	     96.33497269	      1.68136246	     12.45845930	     -2.99729008	     -6.63801571	    -35.01251916	      1.80677009	     -1.70851895	      3.79555136	    -12.29548442	     21.45265768	    126.37789131	    102.03050323	      2.71628538	     -9.69881825	     19.16667314	    126.46237183	     86.73912988
      0.05000000	     17.81850223	     -2.90193779	     -1.37169131	     -0.53969444	      0.58459168	     -0.62966752	     66.78513882	     -3.71742626	      2.27140783	     93.72493472	      1.63580870	     10.22721707	    -10.97178533	     -6.71435463	     68.49687948	     -6.91215997	      6.11551385	     96.33851064	      1.68142421	     12.80607433	     -2.52758183	     -6.71435463	    -35.03535349	      1.83731209	     -1.69106257	      3.79453494	    -12.26977147	     21.17978379	    126.13219268	    104.70943400	      2.71276924	     -9.70408390	     19.11363168	    126.28992123	     88.01803814
      0.06000000	     17.79681677	     -2.88456332	     -1.36605276	     -0.53972651	      0.58458874	     -0.62967410	     66.81933327	     -3.73356284	      2.28134377	     93.72700260	      1.63584479	     10.17680153	    -11.02190402	     -6.80595803	     68.52587705	     -6.87724352	      6.09544008	     96.32662616	      1.68121678	     12.55793765	     -2.87825629	     -6.80595803	    -35.04239180	      1.83058661	     -1.66701788	      3.75414729	    -12.25296722	     20.93266909	    126.13973893	    104.71125086	      2.76073779	     -9.70542125	     19.07984716	    126.21864928	     88.45505535
      0.07000000	     17.76410030	     -2.88704969	     -1.35721176	     -0.53976355	      0.58462701	     -0.62966571	     66.84343078	     -3.73121337	      2.28554285	     93.70973410	      1.63554340	     10.21572684	    -10.95267069	     -6.88861524	     68.54874741	     -6.85770799	      6.11663977	     96.30648177	      1.68086520	     12.59098873	     -2.83614547	     -6.88861524	    -35.03804976	      1.84981987	     -1.69856091	      3.75424733	    -12.20271174	     20.72988432	    126.08813644	    105.10038424	      2.73170462	     -9.73210992	     19.00604328	    126.11166291	     89.17825618
      0.08000000	     17.70524057	     -2.86523429	     -1.32985902	     -0.53979982	      0.58462782	     -0.62972521	     66.91033593	     -3.77873068	      2.28825038	     93.69670289	      1.63531596	     10.14417935	    -10.96504088	     -7.10178930	     68.57940811	     -6.74414777	      6.17292320	     96.26556326	      1.68015104	     12.58931122	     -2.87848674	     -7.10178930	    -35.00986867	      1.85204369	     -1.71223384	      3.72676948	    -12.20638455	     20.48604139	    126.02521458	    105.19781102	      2.74314337	     -9.70931485	     18.97692757	    126.19676367	     88.46675357
      0.09000000	     17.68043381	     -2.90454762	     -1.32278832	     -0.53985282	      0.58467205	     -0.62972783	     66.92795626	     -3.75178939	      2.23122094	     93.65747979	      1.63463139	      9.70879485	    -11.48336369	     -7.22064793	     68.58098681	     -6.70149905	      6.28645280	     96.24579602	      1.67980603	     12.85875665	     -2.51579820	     -7.22064793	    -35.03433833	      1.90345969	     -1.70135553	      3.71776493	    -12.18991236	     20.28033938	    126.16050447	    103.52971484	      2.74575480	     -9.68278569	     18.91243374	    126.37609758	     87.39751189
      0.10000000	     17.59876980	     -2.85884436	     -1.31671161	     -0.53975679	      0.58458323	     -0.62971564	     67.02639313	     -3.79225593	      2.28027166	     93.68980445	      1.63519556	     10.07154173	    -11.00621139	     -7.24725490	     68.66869693	     -6.63241285	      6.28378217	     96.23943241	      1.67969497	     12.65823654	     -2.77487795	     -7.24725490	    -34.98420865	      1.84956792	     -1.74321708	      3.64581988	    -12.16955063	     20.14875185	    126.41383979	    100.90563045	      2.64083335	     -9.67305883	     18.84307969	    126.51092816	     86.43137948
      0.11000000	     17.59919033	     -2.85172832	     -1.31752854	     -0.53982712	      0.58465219	     -0.62973904	     67.02063132	     -3.78653666	      2.29593690	     93.67409219	      1.63492133	     10.04387807	    -11.09072993	     -7.24980335	     68.69958844	     -6.67903477	      6.20953597	     96.24834300	      1.67985048	     12.56074173	     -2.82666562	     -7.24980335	    -35.03806396	      1.88673039	     -1.76211262	      3.78063676	    -12.11534967	     19.94894109	    126.39506282	    100.87288657	      2.73350361	     -9.66366785	     18.75628659	    126.49649598	     86.24894782
      0.12000000	     17.57820039	     -2.85580889	     -1.33888677	     -0.53986803	      0.58476982	     -0.62971028	     67.01370260	     -3.75551671	      2.30443385	     93.62706391	      1.63410053	     10.08116876	    -11.10864221	     -7.25886724	     68.72957988	     -6.71384103	      6.18785373	     96.22389365	      1.67942376	     12.42314883	     -2.94880134	     -7.25886724	    -35.12056323	      1.88287089	     -1.76833200	      3.77171010	    -12.03206028	     19.56162477	    126.45364915	    100.55692688	      2.68536852	     -9.65926876	     18.64939121	    126.64122464	     85.83207546
      0.13000000	     17.56218231	     -2.85552514	     -1.33655242	     -0.53987657	      0.58486304	     -0.62974537	     67.01118416	     -3.74975658	      2.32370227	     93.61491073	      1.63388842	     10.24484249	    -10.83650263	     -7.30342435	     68.72608949	     -6.66397206	      6.21549375	     96.22507426	      1.67944437	     12.38472544	     -3.04264464	     -7.30342435	    -35.15287880	      1.89918082	     -1.59154951	      3.67458611	    -12.02285727	     18.95266554	    126.14676242	    105.39396604	      2.88701647	     -9.62021342	     18.67219404	    126.08271223	     88.76434523
      0.14000000	     17.44326084	     -2.82212502	     -1.33450745	     -0.53984089	      0.58482831	     -0.62975064	     67.13611164	     -3.76569492	      2.37249472	     93.60466933	      1.63370968	     10.34989768	    -10.60379197	     -7.31685769	     68.81814578	     -6.58380767	      6.23127051	     96.17080777	      1.67849724	     12.27494214	     -3.12606143	     -7.31685769	    -35.11476508	      1.88245064	     -1.61928024	      3.65171359	    -11.94075376	     18.80846791	    126.26231622	    103.45732232	      2.87012311	     -9.58382616	     18.56963994	    126.22451591	     87.97208421
      0.15000000	     17.43240742	     -2.83301792	     -1.33396122	     -0.53984058	      0.58494288	     -0.62974747	     67.12470416	     -3.75011307	      2.35596231	     93.58319083	      1.63333480	     10.38755813	    -10.67239138	     -7.32532877	     68.81352218	     -6.58164941	      6.23704841	     96.15280441	      1.67818302	     12.30706749	     -3.22646735	     -7.32532877	    -35.21798563	      1.89919879	     -1.61315312	      3.66469840	    -11.93969114	     18.68670897	    126.28940616	    102.31761024	      2.86732592	     -9.59794959	     18.60805977	    126.37628356	     87.54278168
      0.16000000	     17.36320183	     -2.80361920	     -1.35317548	     -0.53979368	      0.58495128	     -0.62969500	     67.19502836	     -3.73572675	      2.40483218	     93.57461200	      1.63318508	     10.41350548	    -10.62917188	     -7.33493122	     68.86473962	     -6.56217854	      6.22943659	     96.13035819	      1.67779126	     12.23336435	     -3.27520552	     -7.33493122	    -35.25106820	      1.87077885	     -1.61286770	      3.65918896	    -11.92437648	     18.50452447	    126.38838902	    101.27830661	      2.85903735	     -9.60126764	     18.54056884	    126.49021767	     86.95524351
